Simulation
nRows=36
nColumns=15
endheader
time  TH_x TH_y TH_z SC_y  SC_z  SC_x  AC_y  AC_z  AC_x  GH_y  GH_z  GH_yy  EL_x  PS_y
0.0  0.000000  0.000000  0.000000  -29.855031770704194  -0.9292952210606363  1.5678335133430759  56.6667654113078  4.281405348839562  -7.671298456226463  24.37478130472691  -1.0098892449313428  22.621619792988362  25.522715654900505  0.000000
0.034  0.000000  0.000000  0.000000  -29.746097344033164  -1.0835848568670468  1.6775074589204706  56.957935011575344  4.257439281960792  -7.6248966931222135  24.73626625020096  0.08506003946266173  21.19759164874472  25.59912389173375  0.000000
0.068  0.000000  0.000000  0.000000  -29.537734295159662  -1.1728876461397664  1.8114453929943466  57.18320355992268  4.109749885472161  -7.6728681083766785  25.437814139992053  1.3049350712817898  19.317555564828847  25.66742369812271  0.000000
0.10200000000000001  0.000000  0.000000  0.000000  -29.423550740749274  -1.2758489150082915  1.9956668003270184  57.36691158668803  3.971641950292831  -7.725176052394597  26.164939520883895  2.563743944676394  17.277030672741674  25.68286830019447  0.000000
0.136  0.000000  0.000000  0.000000  -29.314231597197217  -1.3617480132898412  2.2153389550040985  57.636306488892984  3.863509691471943  -7.761987948354536  26.914218474741453  3.897480485263795  15.162555580126119  25.714816913671502  0.000000
0.17  0.000000  0.000000  0.000000  -29.251073775431692  -1.4151433202193164  2.4767975848269126  57.94831148894655  3.80031514019451  -7.758578060578477  27.70378806484784  5.294028358070776  13.01128965974099  25.743236591111835  0.000000
0.20400000000000001  0.000000  0.000000  0.000000  -29.20495408653261  -1.453916702270049  2.749293007249471  58.30867791268077  3.805232327059765  -7.733478925795258  28.504522574684184  6.756717700153183  10.80449670012727  25.76236254821843  0.000000
0.23800000000000002  0.000000  0.000000  0.000000  -29.199363409302777  -1.462483135011106  3.028455373654924  58.702823778176615  3.8952834035621517  -7.679108253713472  29.334142717701337  8.275472069706227  8.572748521529954  25.766437672585898  0.000000
0.272  0.000000  0.000000  0.000000  -29.217762775830572  -1.4344668840462091  3.3168268930148197  59.115561419734476  4.056995905466267  -7.601041925906808  30.173455595184656  9.843250844732163  6.30702210888923  25.757998683185246  0.000000
0.30600000000000005  0.000000  0.000000  0.000000  -29.269148839145767  -1.3778278772038413  3.6241802080423993  59.55645114522963  4.27151885174599  -7.502308409272611  31.028821118419362  11.462331658254724  4.024135925118206  25.733120404136628  0.000000
0.34  0.000000  0.000000  0.000000  -29.340298870249953  -1.2928727436597567  3.9396099429045854  60.011781511199  4.536162553338121  -7.377525132337298  31.88990754561503  13.12054610825039  1.7213969601724572  25.698947660097758  0.000000
0.374  0.000000  0.000000  0.000000  -29.432772953315514  -1.179800466799225  4.264003068748379  60.4779213853627  4.8458602712698555  -7.234923366140462  32.75833012177202  14.811672641259289  -0.5899618596997281  25.655785454159403  0.000000
0.40800000000000003  0.000000  0.000000  0.000000  -29.540100939122993  -1.0357390159441777  4.602417004781806  60.93956091444131  5.18867154679134  -7.076149977573837  33.63289931340936  16.525855121324454  -2.902916811032757  25.60405542381908  0.000000
0.44200000000000006  0.000000  0.000000  0.000000  -29.655588375025314  -0.8649684132611035  4.957654010771861  61.39324042240986  5.5558451914827485  -6.909729723140891  34.51409863585698  18.260966248304072  -5.209808361362838  25.545066944515572  0.000000
0.47600000000000003  0.000000  0.000000  0.000000  -29.770347474879507  -0.6759384210705423  5.336230128658366  61.83047566338224  5.942159756528227  -6.750247650537298  35.39769068677761  20.01035276756949  -7.507682866989499  25.48506345423139  0.000000
0.51  0.000000  0.000000  0.000000  -29.880819807182352  -0.4795658817619055  5.73380435597723  62.25125952593448  6.350462045574023  -6.60633889073347  36.280422054756436  21.77009260840755  -9.793570327004526  25.420707755765424  0.000000
0.544  0.000000  0.000000  0.000000  -29.981549935995613  -0.2889772435637941  6.135067267233637  62.652339783609925  6.798777464012018  -6.482979999548194  37.1610403031871  23.532298997907095  -12.060938417864326  25.352362857379273  0.000000
0.5780000000000001  0.000000  0.000000  0.000000  -30.06984125410526  -0.10848076454452371  6.536814622501856  63.033667443871124  7.289895530504784  -6.38290367025299  38.03808869961796  25.289183692660405  -14.3035307179642  25.278930782587537  0.000000
0.6120000000000001  0.000000  0.000000  0.000000  -30.15066961887611  0.06408186454834888  6.933371722269079  63.39702482160963  7.822359933794374  -6.295208168315406  38.90926684348747  27.033543284454765  -16.5162277443758  25.201379142702027  0.000000
0.646  0.000000  0.000000  0.000000  -30.22629021541748  0.233156771659987  7.320346814186875  63.74713610125921  8.385883756788116  -6.208367185000637  39.771691813426784  28.762764368381582  -18.69553289172569  25.119022638174616  0.000000
0.68  0.000000  0.000000  0.000000  -30.298947078584238  0.40414811087523633  7.701832929128793  64.0848072091918  8.96237321295263  -6.114669796535485  40.624154415249905  30.473208023644467  -20.836150224604502  25.03395002913723  0.000000
0.7140000000000001  0.000000  0.000000  0.000000  -30.370750571772547  0.5830323628549704  8.080135814164786  64.40849156688866  9.535522854310788  -6.007738668591646  41.46521685718566  32.160717844542184  -22.93360430339547  24.94726212851206  0.000000
0.748  0.000000  0.000000  0.000000  -30.443705193861454  0.7748000259324728  8.458620227551217  64.71525694812688  10.089388442423559  -5.883449652503019  42.294537184337415  33.82040551145188  -24.98297901364896  24.85973868429781  0.000000
0.782  0.000000  0.000000  0.000000  -30.517709320940227  0.9818221433709816  8.838878836758543  65.00126569530553  10.611301890444075  -5.740017919244222  43.112070635436844  35.44851415969895  -26.9798684505183  24.771421550781305  0.000000
0.8160000000000001  0.000000  0.000000  0.000000  -30.592364455271035  1.2055475063320606  9.221104002518407  65.26389676538845  11.094843642418223  -5.5775138032693565  43.91726919186071  37.04130597722037  -28.92031651951  24.682622821869188  0.000000
0.8500000000000001  0.000000  0.000000  0.000000  -30.67078145403294  1.44648378574268  9.605896146214649  65.50222105146726  11.537775370613275  -5.397187738301183  44.70842592120161  38.59636936067669  -30.800380518844506  24.594920910737386  0.000000
0.8840000000000001  0.000000  0.000000  0.000000  -30.753016431764554  1.6979331020362372  10.00098636225044  65.71846874494034  11.93679670134484  -5.208689306618538  45.4795160203043  40.11420222481857  -32.61806228011793  24.50707879575771  0.000000
0.918  0.000000  0.000000  0.000000  -30.837499102094544  1.947780313639373  10.41697276916904  65.91803104589232  12.29165874754133  -5.026606447878462  46.219923587747516  41.59565838159962  -34.372403293161526  24.417614601247195  0.000000
0.9520000000000001  0.000000  0.000000  0.000000  -30.928198247439127  2.1963329714868207  10.822371491505525  66.10008003515006  12.640009623324213  -4.837281221698596  46.92393292334217  43.03605687309718  -36.06066803991423  24.326180401624594  0.000000
0.9860000000000001  0.000000  0.000000  0.000000  -31.02620944938855  2.4668396366864154  11.17725564913547  66.2472707520451  13.019644072487596  -4.607313433846998  47.59754475052268  44.42355565758266  -37.6772094520867  24.233473779633876  0.000000
1.02  0.000000  0.000000  0.000000  -31.1264944272546  2.7697223992910023  11.512319657472535  66.3527694034365  13.399338129682057  -4.344711813774278  48.24441176902094  45.7499356032349  -39.21598117061326  24.14172041182847  0.000000
1.054  0.000000  0.000000  0.000000  -31.224335783015416  3.0767157224264463  11.858737435608164  66.43135397936986  13.745233925287694  -4.086965830522257  48.859160272889895  47.021529540449706  -40.67519924430551  24.04867842736643  0.000000
1.088  0.000000  0.000000  0.000000  -31.310469732977513  3.3560554980577577  12.217482926330858  66.49085064809144  14.052247995672401  -3.8656039923023324  49.43480567901238  48.24631567925228  -42.05859905618507  23.956823995450787  0.000000
1.122  0.000000  0.000000  0.000000  -31.377833638984015  3.599332210739523  12.587199247055487  66.5303393337734  14.319357255094202  -3.690577042094843  49.96969399828104  49.42215463707994  -43.36439527480731  23.868119412239114  0.000000
1.1560000000000001  0.000000  0.000000  0.000000  -31.43229338960532  3.8119727367549445  12.956804087945306  66.55507359400163  14.550321903118004  -3.550268449406946  50.47065244283007  50.544702014112836  -44.586234625504694  23.7847870593725  0.000000
1.1900000000000002  0.000000  0.000000  0.000000  -31.47770497921302  4.002565415669536  13.317529892666183  66.56827238229242  14.748340693317493  -3.4325114464748907  50.944464436237  51.60785426166228  -45.72077306521832  23.71196704816057  0.000000
